#!OML:ASF X:\für Bonn\!DataBase\2005_08_11_Bastian_Final\c3d\Bastian.ASF
:FULLY-SPECIFIED
:DEGREES
434
root 0.723536 1.19555 20.2213 -645.338 -1.76746 -183.066
lowerback 19.494 -5.33125 3.74018
upperback 22.2286 -1.60439 -1.42922
thorax 14.3289 2.86435 -2.82013
lowerneck 12.5507 -0.804813 -12.5732
upperneck 12.2208 -4.34542 2.77822
head 2.18554 -3.41125 3.19821
rclavicle -5.56597e-015 3.89618e-014
rhumerus -31.3585 29.5208 -65.9857
rradius 38.7369
rwrist 7.29524
rhand -20.4606 3.50324
rfingers 7.12502
rthumb 5.89514 -26.3948
lclavicle -5.56597e-015 3.89618e-014
lhumerus -41.1979 -19.4552 77.8597
lradius 45.021
lwrist 0.97538
lhand -24.1831 -1.46609
lfingers 7.12502
lthumb 2.30057 28.5013
rfemur 4.60631 9.26751 25.6775
rtibia 31.5359
rfoot -2.9404 -12.1325
rtoes -4.5787
lfemur 5.28378 6.08083 -15.0349
ltibia 30.481
lfoot 10.6937 6.87215
ltoes -16.5187
435
root 0.72118 1.19558 20.2267 -645.412 -1.78345 -183.023
lowerback 19.206 -5.24028 3.7539
upperback 22.0735 -1.59818 -1.35387
thorax 14.2708 2.79861 -2.76216
lowerneck 12.425 -0.831038 -12.6457
upperneck 12.2453 -4.36277 2.88627
head 2.22263 -3.41651 3.2482
rclavicle -1.27222e-014 -3.61788e-014
rhumerus -31.389 30.4689 -66.3738
rradius 38.3044
rwrist 7.0761
rhand -20.6037 2.94421
rfingers 7.12502
rthumb 5.75695 -26.9576
lclavicle -1.27222e-014 -3.61788e-014
lhumerus -40.8093 -20.2847 78.1808
lradius 44.2447
lwrist 1.73735
lhand -24.0234 -1.54369
lfingers 7.12502
lthumb 2.45476 28.4219
rfemur 4.72694 9.25432 25.6505
rtibia 31.4938
rfoot -3.20701 -12.3069
rtoes -3.81798
lfemur 5.46497 6.01977 -15.0642
ltibia 30.2887
lfoot 10.6723 6.91455
ltoes -16.8773
436
root 0.719117 1.19515 20.2312 -645.487 -1.80467 -182.976
lowerback 18.9594 -5.13803 3.76735
upperback 21.8841 -1.58098 -1.27863
thorax 14.1447 2.73098 -2.70806
lowerneck 12.3844 -0.842444 -12.7156
upperneck 12.2814 -4.38403 3.02583
head 2.25039 -3.42877 3.31061
rclavicle -7.95139e-015 -1.55052e-014
rhumerus -31.5566 31.4064 -66.8409
rradius 37.9119
rwrist 6.92554
rhand -20.7331 2.31659
rfingers 7.12502
rthumb 5.63204 -27.5886
lclavicle -7.95139e-015 -1.55052e-014
lhumerus -40.5073 -21.167 78.543
lradius 43.5072
lwrist 2.54068
lhand -23.8577 -1.66984
lfingers 7.12502
lthumb 2.61474 28.2939
rfemur 4.85281 9.2238 25.6179
rtibia 31.4517
rfoot -3.38747 -12.4543
rtoes -3.68112
lfemur 5.64422 5.99707 -15.097
ltibia 30.1076
lfoot 10.6652 6.88307
ltoes -17.2812
437
root 0.716458 1.19593 20.2364 -645.552 -1.80431 -182.937
lowerback 18.6746 -5.04688 3.78364
upperback 21.7281 -1.5714 -1.19674
thorax 14.0868 2.66825 -2.64405
lowerneck 12.4755 -0.851386 -12.8183
upperneck 12.2656 -4.44761 3.4048
head 2.04801 -3.43672 3.16306
rclavicle 1.11319e-014 -1.59028e-014
rhumerus -31.6491 32.2529 -67.2681
rradius 37.4994
rwrist 6.81145
rhand -20.8458 1.83284
rfingers 7.12502
rthumb 5.52326 -28.0752
lclavicle 1.11319e-014 -1.59028e-014
lhumerus -40.1891 -22.0414 78.9196
lradius 42.8398
lwrist 3.39673
lhand -23.654 -1.81008
lfingers 7.12502
lthumb 2.81155 28.1511
rfemur 4.96204 9.12473 25.5801
rtibia 31.4099
rfoot -3.54623 -12.5119
rtoes -3.46598
lfemur 5.80752 5.9605 -15.1208
ltibia 29.9385
lfoot 10.6756 6.82931
ltoes -17.6946
438
root 0.713312 1.19587 20.2414 -645.578 -1.8284 -182.891
lowerback 18.4285 -4.94213 3.78856
upperback 21.5165 -1.55463 -1.11905
thorax 13.9331 2.59495 -2.58411
lowerneck 12.4622 -0.862712 -12.8956
upperneck 12.2524 -4.47128 3.57806
head 2.05209 -3.44551 3.22926
rclavicle 1.59028e-014 3.29983e-014
rhumerus -31.8774 33.0424 -67.7647
rradius 37.1162
rwrist 6.81968
rhand -20.9409 1.4432
rfingers 7.12502
rthumb 5.43143 -28.4672
lclavicle 1.59028e-014 3.29983e-014
lhumerus -39.9848 -22.9597 79.3539
lradius 42.1905
lwrist 4.25051
lhand -23.4345 -1.99058
lfingers 7.12502
lthumb 3.02346 27.9677
rfemur 5.02557 9.07413 25.521
rtibia 31.3661
rfoot -3.67389 -12.604
rtoes -3.52466
lfemur 5.91972 5.97689 -15.167
ltibia 29.7738
lfoot 10.7037 6.73096
ltoes -18.1917
439
root 0.709933 1.19608 20.2448 -645.612 -1.84876 -182.831
lowerback 18.2106 -4.85618 3.79118
upperback 21.3267 -1.5484 -1.05367
thorax 13.7943 2.52636 -2.53329
lowerneck 12.2927 -0.903056 -12.9351
upperneck 12.2848 -4.49469 3.69567
head 2.09182 -3.44948 3.26892
rclavicle -7.15625e-015 -2.0276e-014
rhumerus -32.0629 33.8015 -68.2614
rradius 36.7474
rwrist 6.80953
rhand -21.0209 1.18928
rfingers 7.12502
rthumb 5.3542 -28.7231
lclavicle -7.15625e-015 -2.0276e-014
lhumerus -39.7263 -23.8628 79.7659
lradius 41.5441
lwrist 5.11333
lhand -23.1755 -2.19337
lfingers 7.12502
lthumb 3.2736 27.7612
rfemur 5.10897 9.02673 25.4676
rtibia 31.3172
rfoot -3.79701 -12.6767
rtoes -3.46579
lfemur 6.04168 5.9534 -15.2174
ltibia 29.6137
lfoot 10.7096 6.69691
ltoes -18.0188
440
root 0.706709 1.19599 20.2491 -645.613 -1.8504 -182.788
lowerback 18.0137 -4.7583 3.8056
upperback 21.1091 -1.52986 -0.971779
thorax 13.6088 2.45791 -2.47337
lowerneck 12.1082 -0.940956 -13.0024
upperneck 12.3698 -4.52423 3.83857
head 2.15125 -3.4618 3.32018
rclavicle 2.46493e-014 -9.93923e-015
rhumerus -32.2928 34.4956 -68.7793
rradius 36.3625
rwrist 6.8302
rhand -21.0661 1.07399
rfingers 7.12502
rthumb 5.31048 -28.8395
lclavicle 2.46493e-014 -9.93923e-015
lhumerus -39.5765 -24.796 80.2451
lradius 40.9983
lwrist 5.94517
lhand -22.9258 -2.33387
lfingers 7.12502
lthumb 3.51479 27.6169
rfemur 5.14497 8.96632 25.4191
rtibia 31.271
rfoot -3.93935 -12.6664
rtoes -3.24121
lfemur 6.12719 5.89794 -15.2556
ltibia 29.4532
lfoot 10.6694 6.70815
ltoes -17.8409
441
root 0.703884 1.19699 20.2535 -645.627 -1.85567 -182.736
lowerback 17.8351 -4.6654 3.79431
upperback 20.8959 -1.5148 -0.884004
thorax 13.4215 2.38679 -2.39142
lowerneck 11.9123 -0.98899 -13.0522
upperneck 12.434 -4.55667 3.93783
head 2.20557 -3.47257 3.355
rclavicle -1.03368e-014 2.38542e-014
rhumerus -32.5359 35.1666 -69.2902
rradius 35.986
rwrist 6.9412
rhand -21.0815 1.10446
rfingers 7.12502
rthumb 5.29569 -28.8094
lclavicle -1.03368e-014 2.38542e-014
lhumerus -39.3872 -25.6223 80.721
lradius 40.3774
lwrist 6.6478
lhand -22.6312 -2.52274
lfingers 7.12502
lthumb 3.79928 27.4231
rfemur 5.21064 8.93105 25.386
rtibia 31.2216
rfoot -4.06576 -12.6682
rtoes -3.04959
lfemur 6.23161 5.86751 -15.2859
ltibia 29.2965
lfoot 10.7141 6.69603
ltoes -17.2433
442
root 0.700127 1.19703 20.2576 -645.628 -1.87867 -182.68
lowerback 17.6806 -4.57635 3.77221
upperback 20.6676 -1.50415 -0.813316
thorax 13.2018 2.31199 -2.32337
lowerneck 11.7612 -1.0347 -13.0925
upperneck 12.455 -4.58969 4.03669
head 2.23996 -3.48139 3.38934
rclavicle 7.95139e-016 -2.46493e-014
rhumerus -32.7513 35.7726 -69.8338
rradius 35.5429
rwrist 7.06554
rhand -21.0913 1.2561
rfingers 7.12502
rthumb 5.28615 -28.658
lclavicle 7.95139e-016 -2.46493e-014
lhumerus -39.265 -26.4112 81.1922
lradius 39.8059
lwrist 7.26067
lhand -22.3307 -2.67484
lfingers 7.12502
lthumb 4.08943 27.2657
rfemur 5.25736 8.90795 25.3258
rtibia 31.1747
rfoot -4.19913 -12.6379
rtoes -2.94244
lfemur 6.31635 5.79905 -15.3562
ltibia 29.1326
lfoot 10.7334 6.74458
ltoes -16.5153
443
root 0.697008 1.19746 20.262 -645.602 -1.87381 -182.607
lowerback 17.4896 -4.49096 3.77178
upperback 20.4407 -1.49949 -0.723954
thorax 13.0056 2.23614 -2.24557
lowerneck 11.5395 -1.09602 -13.1292
upperneck 12.5284 -4.63186 4.10513
head 2.30136 -3.49629 3.41183
rclavicle -5.56597e-015 3.18055e-015
rhumerus -32.9624 36.373 -70.3828
rradius 35.1122
rwrist 7.15777
rhand -21.0632 1.38434
rfingers 7.12502
rthumb 5.31332 -28.5291
lclavicle -5.56597e-015 3.18055e-015
lhumerus -39.1244 -27.1648 81.7047
lradius 39.1955
lwrist 7.77774
lhand -22.067 -2.83154
lfingers 7.12502
lthumb 4.34405 27.1039
rfemur 5.26758 8.82342 25.2775
rtibia 31.1303
rfoot -4.31232 -12.5436
rtoes -2.91516
lfemur 6.36923 5.75282 -15.3868
ltibia 28.9737
lfoot 10.7352 6.70415
ltoes -16.1718
444
root 0.69323 1.19825 20.2659 -645.582 -1.87774 -182.544
lowerback 17.306 -4.41001 3.75421
upperback 20.2163 -1.4989 -0.643965
thorax 12.8104 2.15882 -2.16803
lowerneck 11.33 -1.14631 -13.15
upperneck 12.5904 -4.65883 4.16559
head 2.35567 -3.50279 3.42959
rclavicle -1.35174e-014 -5.04913e-014
rhumerus -33.1363 36.9307 -70.9408
rradius 34.6176
rwrist 7.30743
rhand -21.0345 1.5609
rfingers 7.12502
rthumb 5.34106 -28.3518
lclavicle -1.35174e-014 -5.04913e-014
lhumerus -38.9515 -27.7277 82.1684
lradius 38.5331
lwrist 8.01785
lhand -21.7636 -2.89395
lfingers 7.12502
lthumb 4.63703 27.0353
rfemur 5.28865 8.81185 25.238
rtibia 31.087
rfoot -4.44275 -12.5191
rtoes -2.74742
lfemur 6.43058 5.6796 -15.4401
ltibia 28.8105
lfoot 10.7254 6.72194
ltoes -15.69
445
root 0.689856 1.19881 20.2707 -645.541 -1.88016 -182.47
lowerback 17.1205 -4.32186 3.75743
upperback 19.9805 -1.48733 -0.575453
thorax 12.6034 2.08952 -2.11616
lowerneck 11.1409 -1.22514 -13.0853
upperneck 12.6426 -4.71586 4.1872
head 2.40387 -3.52099 3.42205
rclavicle 8.74653e-015 -2.18663e-014
rhumerus -33.335 37.4028 -71.546
rradius 34.1317
rwrist 7.50057
rhand -21.0233 1.66766
rfingers 7.12502
rthumb 5.35181 -28.2448
lclavicle 8.74653e-015 -2.18663e-014
lhumerus -38.8104 -28.3593 82.6545
lradius 37.8791
lwrist 8.29103
lhand -21.4805 -2.95187
lfingers 7.12502
lthumb 4.9104 26.9712
rfemur 5.27603 8.75222 25.1787
rtibia 31.0522
rfoot -4.56653 -12.4699
rtoes -2.63393
lfemur 6.47333 5.62815 -15.4856
ltibia 28.6417
lfoot 10.7121 6.71344
ltoes -15.2235
446
root 0.686082 1.19922 20.2759 -645.495 -1.8819 -182.418
lowerback 16.9642 -4.23863 3.73913
upperback 19.7398 -1.48053 -0.494913
thorax 12.3764 2.01486 -2.03842
lowerneck 10.8956 -1.29376 -13.0742
upperneck 12.7187 -4.75435 4.19422
head 2.46764 -3.5321 3.41711
rclavicle 4.77083e-015 -1.47101e-014
rhumerus -33.5456 37.976 -72.151
rradius 33.676
rwrist 7.60837
rhand -20.9712 1.6499
rfingers 7.12502
rthumb 5.40219 -28.2612
lclavicle 4.77083e-015 -1.47101e-014
lhumerus -38.6387 -28.8981 83.1638
lradius 37.1815
lwrist 8.4273
lhand -21.2562 -2.95127
lfingers 7.12502
lthumb 5.12696 26.9667
rfemur 5.26079 8.75621 25.1423
rtibia 31.02
rfoot -4.67342 -12.4838
rtoes -2.56238
lfemur 6.51154 5.55899 -15.5383
ltibia 28.4678
lfoot 10.6878 6.69911
ltoes -15.1953
447
root 0.681453 1.20007 20.28 -645.459 -1.91294 -182.334
lowerback 16.8088 -4.16086 3.70967
upperback 19.5079 -1.47595 -0.424597
thorax 12.1622 1.94298 -1.96448
lowerneck 10.6581 -1.3773 -13.0453
upperneck 12.7814 -4.80976 4.18531
head 2.52709 -3.55 3.40449
rclavicle 6.36111e-015 -2.74323e-014
rhumerus -33.7163 38.4541 -72.753
rradius 33.1701
rwrist 7.79338
rhand -20.9358 1.57663
rfingers 7.12502
rthumb 5.43638 -28.3336
lclavicle 6.36111e-015 -2.74323e-014
lhumerus -38.4167 -29.4024 83.6795
lradius 36.4187
lwrist 8.49082
lhand -21.0897 -2.97586
lfingers 7.12502
lthumb 5.2877 26.9382
rfemur 5.25356 8.67266 25.0381
rtibia 30.9969
rfoot -4.78625 -12.459
rtoes -2.48839
lfemur 6.56699 5.46169 -15.6389
ltibia 28.2891
lfoot 10.6345 6.73423
ltoes -14.8089
448
root 0.675893 1.20126 20.2846 -645.388 -1.91139 -182.241
lowerback 16.6242 -4.09109 3.72555
upperback 19.2524 -1.48695 -0.364961
thorax 11.933 1.86451 -1.92823
lowerneck 10.5007 -1.44717 -12.964
upperneck 12.8264 -4.85892 4.17201
head 2.56679 -3.56549 3.38381
rclavicle 8.74653e-015 -7.95139e-015
rhumerus -34.0002 38.9991 -73.4753
rradius 32.7392
rwrist 7.83458
rhand -20.8949 1.37545
rfingers 7.12502
rthumb 5.47587 -28.5338
lclavicle 8.74653e-015 -7.95139e-015
lhumerus -38.2226 -29.9034 84.1702
lradius 35.6596
lwrist 8.49319
lhand -20.8867 -2.96743
lfingers 7.12502
lthumb 5.48374 26.9416
rfemur 5.21329 8.63226 24.9788
rtibia 30.9743
rfoot -4.88767 -12.532
rtoes -2.6393
lfemur 6.58262 5.34721 -15.7148
ltibia 28.1072
lfoot 10.6068 6.7242
ltoes -14.5066
